# Blender v3.0.1 OBJ File: ''
# www.blender.org
mtllib p3r.mtl
o convex_3.004
v 318.114014 40.023899 -17.158792
v 322.897003 54.000000 -16.978792
v 322.897003 40.023899 -16.978792
v 318.114014 54.000000 -17.152292
v 268.855011 54.000000 -4.995901
v 268.855011 40.023899 -4.995903
v 268.855011 40.023888 48.515503
v 277.306000 40.023888 44.279102
v 331.313995 40.023899 13.100508
v 332.988007 40.023899 10.959806
v 335.378998 40.023899 7.899817
v 335.864014 40.023899 6.241247
v 336.553986 40.023899 3.869098
v 338.652008 40.023899 -7.072333
v 338.358002 40.023899 -9.791622
v 336.191986 40.023899 -12.176593
v 334.770996 40.023899 -12.806592
v 329.893005 40.023899 -14.523092
v 334.770996 54.000000 -12.806591
v 336.191986 54.000000 -12.176592
v 338.358002 54.000000 -9.791621
v 338.652008 54.000000 -7.072330
v 336.553986 54.000000 3.869099
v 335.378998 54.000000 7.899819
v 331.313995 54.000000 13.100509
v 268.855011 53.998589 48.509113
v 277.306000 53.998589 44.279110
vn 0.0373 0.0001 -0.9993
vn 0.0369 0.0003 -0.9993
vn 0.0376 0.0000 -0.9993
vn 0.0363 0.0005 -0.9993
vn -0.2398 -0.0001 -0.9708
vn -0.2397 0.0001 -0.9708
vn -0.2396 0.0005 -0.9709
vn -0.2397 0.0000 -0.9708
vn 0.0000 -1.0000 -0.0000
vn 0.3312 0.0000 -0.9436
vn 0.3314 0.0001 -0.9435
vn 0.3316 0.0000 -0.9434
vn 0.3316 0.0001 -0.9434
vn 0.0000 1.0000 0.0000
vn -1.0000 0.0000 0.0000
vn 0.3319 0.0000 -0.9433
vn 0.4053 0.0000 -0.9142
vn 0.4476 0.0004 0.8942
vn 0.4479 0.0002 0.8941
vn 0.4478 0.0003 0.8941
vn 0.0002 1.0000 0.0003
vn 0.7879 0.0000 0.6159
vn 0.7879 0.0000 0.6158
vn 0.7877 0.0000 0.6160
vn 0.5000 0.0000 0.8660
vn 0.4481 -0.0000 0.8940
vn 0.7403 -0.0000 -0.6723
vn 0.9599 0.0000 0.2805
vn 0.9600 0.0000 0.2800
vn 0.9601 0.0001 0.2798
vn 0.9598 -0.0000 0.2807
vn 0.7880 0.0000 0.6157
vn 0.9942 0.0000 -0.1075
vn 0.9821 -0.0000 0.1883
vn 0.9602 0.0000 0.2793
g convex_3.004_convex_3.004_Default_OBJ.005
usemtl Default_OBJ.005
s 1
f 1//1 2//2 3//3
f 1//1 4//4 2//2
f 1//5 5//6 4//7
f 1//5 6//8 5//6
f 1//9 7//9 6//9
f 1//9 8//9 7//9
f 1//9 9//9 8//9
f 1//9 10//9 9//9
f 1//9 11//9 10//9
f 1//9 12//9 11//9
f 1//9 13//9 12//9
f 1//9 14//9 13//9
f 1//9 15//9 14//9
f 1//9 16//9 15//9
f 1//9 17//9 16//9
f 1//9 18//9 17//9
f 1//9 3//9 18//9
f 3//10 2//11 18//12
f 2//11 19//13 18//12
f 2//14 20//14 19//14
f 2//14 21//14 20//14
f 2//14 22//14 21//14
f 2//14 23//14 22//14
f 2//14 24//14 23//14
f 2//14 25//14 24//14
f 2//14 5//14 25//14
f 2//14 4//14 5//14
f 5//15 7//15 26//15
f 5//15 6//15 7//15
f 5//14 26//14 25//14
f 18//12 19//13 17//16
f 19//17 16//17 17//17
f 19//17 20//17 16//17
f 26//18 7//19 27//20
f 26//14 27//21 25//14
f 25//22 10//22 24//23
f 25//22 9//24 10//22
f 25//25 8//25 9//25
f 25//25 27//25 8//25
f 7//19 8//26 27//20
f 20//27 15//27 16//27
f 20//27 21//27 15//27
f 24//28 12//29 23//30
f 24//28 11//31 12//29
f 24//23 10//22 11//32
f 21//33 14//33 15//33
f 21//33 22//33 14//33
f 23//34 14//34 22//34
f 23//34 13//34 14//34
f 23//30 12//29 13//35
